IDMB Link                        : http://www.imdb.com/title/tt0482571/

Wikipedia Link                   : http://en.wikipedia.org/wiki/The_Prestige_(film)


-----------------------------------------------------------------------------------

Screen shots:
------------- 
http://bayimg.com/aaOJnaaDp
 
http://bayimg.com/AAojOAADp
 
http://bayimg.com/BAOjaaaDP

-----------------------------------------------------------------------------------




General                          : The VV Movies Presents
==========
Complete name                    : The Prestige 2006 720p BDRip H264 [The VV]
Format                           : MPEG-4
Format profile                   : Base Media
Codec ID                         : isom
File size                        : 2.42 GiB
Duration                         : 2h 10mn
Overall bit rate                 : 2 651 Kbps
Encoded date                     : UTC 2011-02-03 20:01:54

Video
==========
ID                               : 1
Format                           : AVC
Format/Info                      : Advanced Video Codec
Format profile                   : High@L4.0
Format settings, CABAC           : Yes
Format settings, ReFrames        : 4 frames
Codec ID                         : avc1
Codec ID/Info                    : Advanced Video Coding
Duration                         : 2h 10mn
Bit rate mode                    : Variable
Bit rate                         : 2 300 Kbps
Maximum bit rate                 : 15.8 Mbps
Width                            : 1 280 pixels
Height                           : 544 pixels
Display aspect ratio             : 2.35:1
Frame rate mode                  : Constant
Frame rate                       : 23.976 fps
Resolution                       : 24 bits
Colorimetry                      : 4:2:0
Scan type                        : Progressive
Bits/(Pixel*Frame)               : 0.138
Stream size                      : 2.10 GiB (87%)
Writing library                  : x264 core 84 r1400M 20fa784
Encoded date                     : UTC 2011-02-03 18:01:48

Audio
==========
ID                               : 2
Format                           : AAC
Format/Info                      : Advanced Audio Codec
Format version                   : Version 4
Format profile                   : LC
Format settings, SBR             : No
Codec ID                         : 40
Duration                         : 2h 10mn
Bit rate mode                    : Variable
Bit rate                         : 352.8 Kbps
Maximum bit rate                 : 432 Kbps
Channel(s)                       : 6 channels
Channel positions                : Front: L C R, Rear: L R, LFE
Sampling rate                    : 48.0 KHz
Resolution                       : 16 bits
Stream size                      : 325 MiB (13%)
Encoded date                     : UTC 2011-02-03 20:03:18

Subtitles                        : English | French | Spanish

Source
==========
The Prestige 2006 Blu-Ray 1080p MPEG-4 AVC/LPCM 5.1 [30.2 GB]


